<svg xmlns="http://www.w3.org/2000/svg" viewBox="0 0 50 50"><defs><style>.cls-1{fill:#fff;}.cls-2{fill:#004ea2;}</style></defs><g id="Layer_2" data-name="Layer 2"><g id="레이어_1" data-name="레이어 1"><path class="cls-1" d="M0,38c0,8.53,4.79,12,12.57,12H50V12C50,3.5,45.21.08,37.43,0H0Z"/><path class="cls-2" d="M37.43,0H12.2V6h6.25v6.25H12.2v6.24H6V12.21H0V38c0,8.53,4.79,12,12.57,12H50V12C50,3.5,45.21.08,37.43,0ZM12.53,40.39a2.48,2.48,0,0,1-2.66,2.72H5.63v-2h4c.79,0,.79-.64.79-1v-8h2.12Zm10.55,1.5h0a4.19,4.19,0,0,1-3.15,1.33c-1.56.05-2.28,0-2.28,0a4.17,4.17,0,0,1-3.16-1.33c-.72-.83-1-2.78-1-4.25s.26-3.42,1-4.26a4.13,4.13,0,0,1,3.16-1.32,21.29,21.29,0,0,1,2.28,0,4.15,4.15,0,0,1,3.15,1.32c.73.84,1,2.79,1,4.26S23.81,41.06,23.08,41.89Zm11,1.23h-2.2l-4.71-7.51v7.51H25V32.17h2.24l4.66,7.41V32.17h2.12Zm-.9-13.94a2.89,2.89,0,0,1-1.44.34H25v-2h6.26c.82,0,1.09-.87,1.09-1.27S32.06,25,31.24,25H27.43a2.63,2.63,0,0,1-1.93-.76,4,4,0,0,1-.92-2.45A3.5,3.5,0,0,1,26,18.93a2.82,2.82,0,0,1,1.44-.35H34v2H27.91c-.82,0-1.09.86-1.09,1.25a1.25,1.25,0,0,0,1.09,1.26h3.81a2.56,2.56,0,0,1,1.93.76,4,4,0,0,1,.92,2.45A3.5,3.5,0,0,1,33.16,29.18Zm6.44-10.6h4.82v2H39.8c-1.34,0-2.23.92-2.48,2.49h7.1V25H37.31c.25,1.6,1.14,2.54,2.49,2.54h4.62v2H39.6c-2.76,0-4.55-2.16-4.55-5.47S36.84,18.58,39.6,18.58Zm4.94,20v4.52H39.61c-2.76,0-4.55-2.17-4.55-5.47s1.79-5.48,4.55-5.48h4.82v2H39.82c-1.61,0-2.57,1.3-2.57,3.47s1,3.47,2.57,3.47h2.61V38.6H40V36.69h4.53Z"/><path class="cls-2" d="M21.42,34.76a2.34,2.34,0,0,0-1.56-.66,14.29,14.29,0,0,0-2.14,0,2,2,0,0,0-1.59.69h0c-.46.54-.49,2.2-.49,2.85s0,2.31.5,2.85a2,2,0,0,0,1.59.64,17.85,17.85,0,0,0,2.14,0,2.35,2.35,0,0,0,1.56-.61l0,0c.47-.54.5-2.18.5-2.84s0-2.31-.5-2.85Z"/><rect class="cls-2" width="5.96" height="5.96"/></g></g></svg>