<svg xmlns="http://www.w3.org/2000/svg" viewBox="0 0 134.62 44.03"><defs><style>.cls-1{fill:#004ea2;}.cls-2{fill:#fff;}</style></defs><g id="Layer_2" data-name="Layer 2"><g id="레이어_1" data-name="레이어 1"><path class="cls-1" d="M52.84,34.3h1.78v3.58h3.56V34.3H60v8.87H58.18V39.28H54.62v3.89H52.84Z"/><path class="cls-1" d="M65.58,34.15c2.79,0,4.35,1.88,4.35,4.56s-1.54,4.61-4.35,4.61-4.34-1.89-4.34-4.61S62.76,34.15,65.58,34.15Zm0,7.78c1.82,0,2.5-1.62,2.5-3.22s-.73-3.16-2.5-3.16-2.49,1.6-2.49,3.16S63.77,41.93,65.58,41.93Z"/><path class="cls-1" d="M75.92,35.93a4.45,4.45,0,0,0-1.81-.38,1.22,1.22,0,0,0-1.39,1.23c0,1.54,3.88.89,3.88,3.86,0,2-1.53,2.68-3.33,2.68A7.7,7.7,0,0,1,71,43l.17-1.6a4.29,4.29,0,0,0,2,.55c.68,0,1.58-.35,1.58-1.15,0-1.69-3.89-1-3.89-3.93,0-2,1.54-2.7,3.1-2.7a6.55,6.55,0,0,1,2.12.32Z"/><path class="cls-1" d="M78.07,34.3h2.24c1.93,0,3.7.56,3.7,2.68S82.5,39.8,80.59,39.8h-.75v3.37H78.07Zm1.77,4.1h.63c.89,0,1.69-.29,1.69-1.32s-.78-1.38-1.69-1.38h-.63Z"/><path class="cls-1" d="M85.13,34.3h1.78v8.87H85.13Z"/><path class="cls-1" d="M90.43,35.7H87.89V34.3h6.86v1.4H92.21v7.47H90.43Z"/><path class="cls-1" d="M97.4,34.3h2l3.48,8.87h-2l-.76-2H96.57l-.78,2H94Zm1,1.78h0l-1.29,3.66h2.6Z"/><path class="cls-1" d="M104,34.3h1.78v7.47h3.44v1.4H104Z"/><path class="cls-1" d="M62.31,16.09a8.22,8.22,0,0,0-3.22-.68,2.21,2.21,0,0,0-2.5,2.2c0,2.74,6.94,1.59,6.94,6.89,0,3.47-2.74,4.79-5.94,4.79a14.19,14.19,0,0,1-4.06-.61l.3-2.86a7.58,7.58,0,0,0,3.58,1c1.2,0,2.81-.61,2.81-2,0-3-6.94-1.76-6.94-7,0-3.53,2.74-4.83,5.54-4.83a12,12,0,0,1,3.78.57Z"/><path class="cls-1" d="M66.41,13.19h9.34v2.49H69.59v3.9h5.64v2.5H69.59v4.44H75.8V29H66.41Z"/><path class="cls-1" d="M77.68,26.25a4.1,4.1,0,0,0,1.52.27c2.06,0,2.06-1.65,2.06-2.79V13.19h3.18V25.25a4,4,0,0,1-4.34,4,8.82,8.82,0,0,1-2.42-.3Z"/><path class="cls-1" d="M94.67,12.91c5,0,7.75,3.36,7.75,8.15s-2.74,8.23-7.75,8.23-7.76-3.38-7.76-8.23S89.63,12.91,94.67,12.91Zm0,13.88c3.24,0,4.45-2.88,4.45-5.73s-1.3-5.65-4.45-5.65-4.45,2.86-4.45,5.65S91.43,26.79,94.67,26.79Z"/><path class="cls-1" d="M105.05,13.19H109L115,25h0V13.19h3V29h-3.87l-6.06-11.84h0V29h-3Z"/><path class="cls-1" d="M133.94,16.25a10.35,10.35,0,0,0-4.08-.84,5.39,5.39,0,0,0-5.74,5.74c0,3.22,2,5.64,5.37,5.64a9,9,0,0,0,2.09-.22V22.44h-3.36v-2.5h6.4v8.53a19.75,19.75,0,0,1-5.13.82c-5.12,0-8.68-2.56-8.68-7.92s3.31-8.46,8.68-8.46a15.88,15.88,0,0,1,4.65.66Z"/><path class="cls-2" d="M0,33.43C0,40.94,4.21,44,11.07,44H44V10.59C44,3.08,39.81.07,33,0H0Z"/><path class="cls-1" d="M33,0H10.74V5.25h5.5v5.5h-5.5v5.5H5.25v-5.5H0V33.43C0,40.94,4.21,44,11.07,44H44V10.59C44,3.08,39.81.07,33,0ZM11,35.56A2.17,2.17,0,0,1,8.7,38H5V36.21H8.47c.7,0,.7-.57.7-.86v-7H11Zm9.3,1.33h0a3.7,3.7,0,0,1-2.78,1.16,19.81,19.81,0,0,1-2,0,3.65,3.65,0,0,1-2.78-1.16,6.77,6.77,0,0,1-.86-3.75,6.79,6.79,0,0,1,.86-3.75,3.65,3.65,0,0,1,2.78-1.16,19.81,19.81,0,0,1,2,0,3.7,3.7,0,0,1,2.78,1.16,6.81,6.81,0,0,1,.86,3.76A6.76,6.76,0,0,1,20.33,36.89ZM30,38H28.05l-4.14-6.6V38H22V28.33h2l4.11,6.52V28.33H30Zm-.8-12.27a2.42,2.42,0,0,1-1.26.31H22V24.24H27.5c.73,0,1-.77,1-1.12s-.23-1.1-1-1.1H24.15a2.28,2.28,0,0,1-1.7-.67,3.53,3.53,0,0,1-.81-2.16,3.09,3.09,0,0,1,1.25-2.52,2.38,2.38,0,0,1,1.26-.31H30v1.77h-5.4c-.73,0-1,.76-1,1.1a1.1,1.1,0,0,0,1,1.11h3.35a2.24,2.24,0,0,1,1.7.67,3.53,3.53,0,0,1,.81,2.16A3.06,3.06,0,0,1,29.19,25.69Zm5.68-9.33h4.24v1.77H35.05c-1.19,0-2,.81-2.19,2.19h6.25V22H32.85c.22,1.41,1,2.24,2.2,2.24h4.06V26H34.87c-2.44,0-4-1.91-4-4.82S32.43,16.36,34.87,16.36ZM39.22,34v4H34.88c-2.43,0-4-1.9-4-4.81s1.58-4.82,4-4.82h4.24v1.76H35.06c-1.41,0-2.26,1.15-2.26,3.06s.85,3.05,2.26,3.05h2.3V34H35.23V32.3h4Z"/><path class="cls-1" d="M18.86,30.6A2.14,2.14,0,0,0,17.49,30a13.94,13.94,0,0,0-1.89,0,1.82,1.82,0,0,0-1.4.62h0a5.18,5.18,0,0,0-.44,2.5,5.22,5.22,0,0,0,.44,2.51,1.82,1.82,0,0,0,1.4.57,15.93,15.93,0,0,0,1.89,0,2.06,2.06,0,0,0,1.37-.54l0,0a5.2,5.2,0,0,0,.44-2.5,5.26,5.26,0,0,0-.44-2.52Z"/><rect class="cls-1" width="5.25" height="5.25"/></g></g></svg>