<svg xmlns="http://www.w3.org/2000/svg" viewBox="0 0 130.36 44.39"><defs><style>.cls-1{fill:#004ea2;}</style></defs><g id="Layer_2" data-name="Layer 2"><g id="Layer_1-2" data-name="Layer 1"><rect class="cls-1" x="69.07" y="16.21" width="2.66" height="20.92"/><path class="cls-1" d="M60.6,26a12.17,12.17,0,0,1-.93-4.95V16.73H56.88V21a11.62,11.62,0,0,1-1,5,5.72,5.72,0,0,1-2.71,2.9v2a5.29,5.29,0,0,0,1.53-.55,8.57,8.57,0,0,0,1.53-1A8,8,0,0,0,57.54,28a3.52,3.52,0,0,0,.68-1.4,3.31,3.31,0,0,0,.64,1.4,7.16,7.16,0,0,0,1.27,1.31,8.18,8.18,0,0,0,1.59,1,5.45,5.45,0,0,0,1.62.55v-2A5.26,5.26,0,0,1,60.6,26Z"/><polygon class="cls-1" points="64.74 22.68 61.31 22.68 61.31 24.52 64.74 24.52 64.74 37.12 67.4 37.12 67.4 16.21 64.74 16.21 64.74 22.68"/><path class="cls-1" d="M83.16,28.61c-3.63,0-6.58,2.17-6.58,4.86s3,4.86,6.58,4.86,6.56-2.18,6.56-4.86S86.79,28.61,83.16,28.61Zm0,7.88c-2.07,0-3.74-1.36-3.74-3s1.67-3,3.74-3,3.73,1.36,3.73,3S85.22,36.49,83.16,36.49Z"/><path class="cls-1" d="M75.8,16.47v1.84h6c-.16.86-1.53,3.91-6.36,3.91v1.9c4.34,0,7.11-1.77,7.75-3.13.64,1.36,3.42,3.13,7.76,3.13v-1.9c-4.84,0-6.2-3-6.36-3.91h6V16.47Z"/><polygon class="cls-1" points="127.69 16.21 127.69 28.55 123 28.55 123 30.39 127.69 30.39 127.69 32.65 130.35 32.65 130.35 16.21 127.69 16.21"/><path class="cls-1" d="M119,35a.94.94,0,0,1-.33-.71V31H116v3.5a2.78,2.78,0,0,0,.64,1.85,2,2,0,0,0,1.64.77h12.08V35.29H119.77A1.15,1.15,0,0,1,119,35Z"/><path class="cls-1" d="M119.81,25.06c3,0,5.46-2,5.46-4.49s-2.45-4.48-5.46-4.48-5.46,2-5.46,4.48S116.8,25.06,119.81,25.06Zm0-7.13a2.65,2.65,0,1,1-2.69,2.65,2.65,2.65,0,0,1,2.69-2.65Z"/><polygon class="cls-1" points="118.48 30.39 121.14 30.39 121.14 27.5 126.72 27.5 126.72 25.66 112.91 25.66 112.91 27.5 118.48 27.5 118.48 30.39"/><polygon class="cls-1" points="84.48 23.4 81.83 23.4 81.83 25.73 73.05 25.73 73.05 27.57 93.26 27.57 93.26 25.73 84.48 25.73 84.48 23.4"/><path class="cls-1" d="M108.54,18.69h-4.18v-2H101.7v3h-5v-3H94.07V24a2.65,2.65,0,0,0,.73,1.91,2.33,2.33,0,0,0,1.73.77h7.83V24.81h4.18v3h2.66V16.21h-2.66Zm-6.84,6.18H97.89a1.26,1.26,0,0,1-.81-.29,1,1,0,0,1-.35-.78V21.58h5ZM108.54,23h-4.18V20.53h4.18Z"/><path class="cls-1" d="M105,28.15c-3.41,0-6.18,2.28-6.18,5.09s2.77,5.09,6.18,5.09,6.19-2.28,6.19-5.09S108.37,28.15,105,28.15Zm0,8.34a3.25,3.25,0,1,1,3.34-3.25A3.3,3.3,0,0,1,105,36.49Z"/><path class="cls-1" d="M19,30.86a2.09,2.09,0,0,0-1.38-.59,15.06,15.06,0,0,0-1.9,0,1.77,1.77,0,0,0-1.41.62h0a5.34,5.34,0,0,0-.44,2.53,5.21,5.21,0,0,0,.45,2.52,1.83,1.83,0,0,0,1.41.57,15.06,15.06,0,0,0,1.9,0A2.09,2.09,0,0,0,19,36h0a5.21,5.21,0,0,0,.45-2.52,5.27,5.27,0,0,0-.45-2.6Z"/><path class="cls-1" d="M33.22,0H10.83V5.29h5.55v5.55H10.83v5.54H5.29V10.84H0V33H0c0,7,3,11.39,10.69,11.39h33.7V10.68C44.39,3.11,40.14.07,33.22,0ZM11.12,35.85a2.19,2.19,0,0,1-1.94,2.41,1.88,1.88,0,0,1-.41,0H5V36.5H8.54c.7,0,.7-.57.7-.86V28.56h1.88Zm9.37,1.34h0a3.67,3.67,0,0,1-2.8,1.18h-2a3.67,3.67,0,0,1-2.8-1.18A6.71,6.71,0,0,1,12,33.42a6.87,6.87,0,0,1,.88-3.79,3.69,3.69,0,0,1,2.8-1.17c.67,0,1.33,0,2,0a3.75,3.75,0,0,1,2.8,1.17,6.87,6.87,0,0,1,.88,3.79A6.82,6.82,0,0,1,20.49,37.19Zm9.75,1.09h-2L24.1,31.61v6.67H22.23V28.56h2l4.14,6.57V28.56h1.88ZM29.43,25.9a2.57,2.57,0,0,1-1.27.31h-6V24.44h5.56c.73,0,1-.78,1-1.13a1.07,1.07,0,0,0-1-1.11H24.35a2.32,2.32,0,0,1-1.71-.68,3.51,3.51,0,0,1-.82-2.17,3.1,3.1,0,0,1,1.25-2.54,2.49,2.49,0,0,1,1.28-.32h5.87v1.79H24.78a1.08,1.08,0,0,0-1,1.1,1.11,1.11,0,0,0,1,1.13h3.38a2.27,2.27,0,0,1,1.71.67,3.54,3.54,0,0,1,.82,2.18A3.07,3.07,0,0,1,29.43,25.9Zm5.73-9.41h4.27v1.79h-4.1c-1.19,0-2,.81-2.2,2.21h6.3v1.7H33.12c.22,1.41,1,2.25,2.21,2.25h4.1v1.77H35.16c-2.46,0-4-1.92-4-4.86S32.7,16.49,35.16,16.49Zm4.38,17.77v4H35.17c-2.46,0-4.05-1.92-4.05-4.86s1.59-4.86,4.05-4.86h4.27v1.78H35.35c-1.43,0-2.28,1.16-2.28,3.08s.85,3.08,2.28,3.08h2.32V34.26H35.51V32.57h4Z"/><rect class="cls-1" width="5.29" height="5.29"/></g></g></svg>