<?xml version="1.0" encoding="utf-8"?>
<!-- Generator: Adobe Illustrator 25.2.3, SVG Export Plug-In . SVG Version: 6.00 Build 0)  -->
<svg version="1.1" id="Layer_1" xmlns="http://www.w3.org/2000/svg" xmlns:xlink="http://www.w3.org/1999/xlink" x="0px" y="0px"
	 viewBox="0 0 130.4 44.4" style="enable-background:new 0 0 130.4 44.4;" xml:space="preserve">
<style type="text/css">
	.st0{display:none;}
	.st1{display:inline;}
	.st2{fill:#004EA2;}
	.st3{fill:#FFFFFF;}
</style>
<g id="Layer_2_1_" class="st0">
	<g id="레이어_1" class="st1">
		<rect x="69.1" y="16.2" class="st2" width="2.7" height="20.9"/>
		<path class="st2" d="M60.6,26c-0.7-1.6-1-3.3-0.9-5v-4.3h-2.8V21c0,1.7-0.3,3.4-1,5c-0.5,1.3-1.5,2.3-2.7,2.9v2
			c0.5-0.1,1.1-0.3,1.5-0.5c0.5-0.3,1.1-0.6,1.5-1c0.5-0.4,0.9-0.8,1.3-1.4c0.3-0.4,0.6-0.9,0.7-1.4c0.1,0.5,0.3,1,0.6,1.4
			c0.4,0.5,0.8,0.9,1.3,1.3c0.5,0.4,1,0.7,1.6,1c0.5,0.3,1.1,0.5,1.6,0.5v-2C62.1,28.3,61.1,27.3,60.6,26z"/>
		<polygon class="st2" points="64.7,22.7 61.3,22.7 61.3,24.5 64.7,24.5 64.7,37.1 67.4,37.1 67.4,16.2 64.7,16.2 		"/>
		<path class="st2" d="M83.2,28.6c-3.6,0-6.6,2.2-6.6,4.9c0,2.7,3,4.9,6.6,4.9s6.6-2.2,6.6-4.9S86.8,28.6,83.2,28.6z M83.2,36.5
			c-2.1,0-3.7-1.4-3.7-3c0-1.6,1.7-3,3.7-3s3.7,1.4,3.7,3C86.9,35.1,85.2,36.5,83.2,36.5z"/>
		<path class="st2" d="M75.8,16.5v1.8h6c-0.2,0.9-1.5,3.9-6.4,3.9v1.9c4.3,0,7.1-1.8,7.8-3.1c0.6,1.4,3.4,3.1,7.8,3.1v-1.9
			c-4.8,0-6.2-3-6.4-3.9h6v-1.8H75.8z"/>
		<polygon class="st2" points="127.7,16.2 127.7,28.6 123,28.6 123,30.4 127.7,30.4 127.7,32.7 130.4,32.7 130.4,16.2 		"/>
		<path class="st2" d="M119,35c-0.2-0.2-0.3-0.4-0.3-0.7V31H116v3.5c0,0.7,0.2,1.3,0.6,1.8c0.4,0.5,1,0.8,1.6,0.8h12.1v-1.8h-10.6
			C119.5,35.3,119.2,35.2,119,35z"/>
		<path class="st2" d="M119.8,25.1c3,0,5.5-2,5.5-4.5s-2.4-4.5-5.5-4.5s-5.5,2-5.5,4.5S116.8,25.1,119.8,25.1z M119.8,17.9
			c1.5,0,2.6,1.2,2.6,2.7c0,1.5-1.2,2.6-2.7,2.6c-1.4,0-2.6-1.2-2.6-2.6C117.1,19.1,118.3,17.9,119.8,17.9
			C119.8,17.9,119.8,17.9,119.8,17.9z"/>
		<polygon class="st2" points="118.5,30.4 121.1,30.4 121.1,27.5 126.7,27.5 126.7,25.7 112.9,25.7 112.9,27.5 118.5,27.5 		"/>
		<polygon class="st2" points="84.5,23.4 81.8,23.4 81.8,25.7 73.1,25.7 73.1,27.6 93.3,27.6 93.3,25.7 84.5,25.7 		"/>
		<path class="st2" d="M108.5,18.7h-4.2v-2h-2.7v3h-5v-3h-2.6V24c0,0.7,0.2,1.4,0.7,1.9c0.4,0.5,1.1,0.8,1.7,0.8h7.8v-1.9h4.2v3h2.7
			V16.2h-2.7L108.5,18.7z M101.7,24.9h-3.8c-0.3,0-0.6-0.1-0.8-0.3c-0.2-0.2-0.4-0.5-0.3-0.8v-2.2h5L101.7,24.9z M108.5,23h-4.2
			v-2.5h4.2V23z"/>
		<path class="st2" d="M105,28.2c-3.4,0-6.2,2.3-6.2,5.1s2.8,5.1,6.2,5.1s6.2-2.3,6.2-5.1S108.4,28.2,105,28.2z M105,36.5
			c-1.8,0-3.2-1.5-3.2-3.3c0-1.8,1.5-3.2,3.3-3.2c1.8,0,3.2,1.5,3.2,3.2C108.3,35.1,106.8,36.5,105,36.5z"/>
		<path class="st3" d="M33.2,0H0v33l0,0c0,7,3,11.4,10.7,11.4h33.7V10.7C44.4,3.1,40.1,0.1,33.2,0z"/>
		<path class="st2" d="M19,30.9c-0.4-0.4-0.9-0.6-1.4-0.6c-0.6,0-1.3,0-1.9,0c-0.5,0-1.1,0.2-1.4,0.6l0,0c-0.4,0.8-0.5,1.7-0.4,2.5
			c-0.1,0.9,0.1,1.7,0.4,2.5c0.4,0.4,0.9,0.6,1.4,0.6c0.6,0,1.3,0,1.9,0c0.5,0,1-0.2,1.4-0.5l0,0c0.4-0.8,0.5-1.7,0.5-2.5
			C19.5,32.6,19.4,31.7,19,30.9L19,30.9z"/>
		<path class="st2" d="M33.2,0H10.8v5.3h5.6v5.5h-5.6v5.5H5.3v-5.5H0V33l0,0c0,7,3,11.4,10.7,11.4h33.7V10.7
			C44.4,3.1,40.1,0.1,33.2,0z M11.1,35.8c0.1,1.2-0.7,2.3-1.9,2.4c-0.1,0-0.3,0-0.4,0H5v-1.8h3.5c0.7,0,0.7-0.6,0.7-0.9v-7.1h1.9
			V35.8z M20.5,37.2L20.5,37.2c-0.7,0.8-1.7,1.2-2.8,1.2c-1.4,0-2,0-2,0c-1.1,0-2.1-0.4-2.8-1.2c-0.7-1.1-1-2.5-0.9-3.8
			c-0.1-1.3,0.2-2.6,0.9-3.8c0.7-0.8,1.7-1.2,2.8-1.2c0.7,0,1.3,0,2,0c1.1,0,2.1,0.4,2.8,1.2c0.7,1.2,1,2.5,0.9,3.8
			C21.4,34.7,21.1,36,20.5,37.2z M30.2,38.3h-2l-4.1-6.7v6.7h-1.9v-9.7h2l4.1,6.6v-6.6h1.9L30.2,38.3z M29.4,25.9
			c-0.4,0.2-0.8,0.3-1.3,0.3h-6v-1.8h5.6c0.7,0,1-0.8,1-1.1s-0.2-1.1-1-1.1h-3.4c-0.6,0-1.3-0.2-1.7-0.7c-0.5-0.6-0.8-1.4-0.8-2.2
			c0-1,0.4-1.9,1.2-2.5c0.4-0.2,0.8-0.3,1.3-0.3h5.9v1.8h-5.4c-0.7,0-1,0.8-1,1.1c0,0.6,0.4,1.1,1,1.1h3.4c0.6,0,1.3,0.2,1.7,0.7
			c0.5,0.6,0.8,1.4,0.8,2.2C30.7,24.4,30.2,25.3,29.4,25.9z M35.2,16.5h4.3v1.8h-4.1c-1.2,0-2,0.8-2.2,2.2h6.3v1.7h-6.3
			c0.2,1.4,1,2.2,2.2,2.2h4.1v1.8h-4.3c-2.5,0-4-1.9-4-4.9S32.7,16.5,35.2,16.5z M39.5,34.3v4h-4.4c-2.5,0-4-1.9-4-4.9
			s1.6-4.9,4-4.9h4.3v1.8h-4.1c-1.4,0-2.3,1.2-2.3,3.1s0.8,3.1,2.3,3.1h2.3v-2.2h-2.2v-1.7h4L39.5,34.3z"/>
		<rect y="0" class="st2" width="5.3" height="5.3"/>
	</g>
</g>
<rect x="69.1" y="16.2" class="st2" width="2.7" height="20.9"/>
<path class="st2" d="M60.6,26c-0.7-1.6-1-3.3-0.9-5v-4.3h-2.8V21c0,1.7-0.3,3.4-1,5c-0.5,1.3-1.5,2.3-2.7,2.9v2
	c0.5-0.1,1.1-0.3,1.5-0.5c0.5-0.3,1.1-0.6,1.5-1c0.5-0.4,0.9-0.8,1.3-1.4c0.3-0.4,0.6-0.9,0.7-1.4c0.1,0.5,0.3,1,0.6,1.4
	c0.4,0.5,0.8,0.9,1.3,1.3c0.5,0.4,1,0.7,1.6,1c0.5,0.3,1.1,0.5,1.6,0.5v-2C62.1,28.3,61.1,27.3,60.6,26z"/>
<polygon class="st2" points="64.7,22.7 61.3,22.7 61.3,24.5 64.7,24.5 64.7,37.1 67.4,37.1 67.4,16.2 64.7,16.2 "/>
<path class="st2" d="M83.2,28.6c-3.6,0-6.6,2.2-6.6,4.9s3,4.9,6.6,4.9s6.6-2.2,6.6-4.9S86.8,28.6,83.2,28.6z M83.2,36.5
	c-2.1,0-3.7-1.4-3.7-3s1.7-3,3.7-3s3.7,1.4,3.7,3S85.2,36.5,83.2,36.5z"/>
<path class="st2" d="M75.8,16.5v1.8h6c-0.2,0.9-1.5,3.9-6.4,3.9v1.9c4.3,0,7.1-1.8,7.8-3.1c0.6,1.4,3.4,3.1,7.8,3.1v-1.9
	c-4.8,0-6.2-3-6.4-3.9h6v-1.8H75.8z"/>
<polygon class="st2" points="127.7,16.2 127.7,28.5 123,28.5 123,30.4 127.7,30.4 127.7,32.7 130.3,32.7 130.3,16.2 "/>
<path class="st2" d="M119,35c-0.2-0.2-0.3-0.4-0.3-0.7V31H116v3.5c0,0.7,0.2,1.3,0.6,1.8c0.4,0.5,1,0.8,1.6,0.8h12.1v-1.8h-10.6
	C119.5,35.3,119.2,35.2,119,35z"/>
<path class="st2" d="M119.8,25.1c3,0,5.5-2,5.5-4.5s-2.4-4.5-5.5-4.5s-5.5,2-5.5,4.5S116.8,25.1,119.8,25.1z M119.8,17.9
	c1.5,0,2.6,1.2,2.6,2.7c0,1.5-1.2,2.6-2.7,2.6c-1.4,0-2.6-1.2-2.6-2.6C117.1,19.1,118.3,17.9,119.8,17.9
	C119.8,17.9,119.8,17.9,119.8,17.9z"/>
<polygon class="st2" points="118.5,30.4 121.1,30.4 121.1,27.5 126.7,27.5 126.7,25.7 112.9,25.7 112.9,27.5 118.5,27.5 "/>
<polygon class="st2" points="84.5,23.4 81.8,23.4 81.8,25.7 73,25.7 73,27.6 93.3,27.6 93.3,25.7 84.5,25.7 "/>
<path class="st2" d="M108.5,18.7h-4.2v-2h-2.7v3h-5v-3h-2.6V24c0,0.7,0.2,1.4,0.7,1.9c0.4,0.5,1.1,0.8,1.7,0.8h7.8v-1.9h4.2v3h2.7
	V16.2h-2.7L108.5,18.7z M101.7,24.9h-3.8c-0.3,0-0.6-0.1-0.8-0.3c-0.2-0.2-0.4-0.5-0.3-0.8v-2.2h5L101.7,24.9z M108.5,23h-4.2v-2.5
	h4.2V23z"/>
<path class="st2" d="M105,28.1c-3.4,0-6.2,2.3-6.2,5.1s2.8,5.1,6.2,5.1s6.2-2.3,6.2-5.1S108.4,28.1,105,28.1z M105,36.5
	c-1.8,0-3.2-1.5-3.2-3.3c0-1.8,1.5-3.2,3.3-3.2c1.8,0,3.2,1.5,3.2,3.2C108.3,35.1,106.8,36.5,105,36.5z"/>
<path class="st2" d="M19,30.9c-0.4-0.4-0.9-0.6-1.4-0.6c-0.6,0-1.3,0-1.9,0c-0.5,0-1.1,0.2-1.4,0.6l0,0c-0.4,0.8-0.5,1.7-0.4,2.5
	c-0.1,0.9,0.1,1.7,0.4,2.5c0.4,0.4,0.9,0.6,1.4,0.6c0.6,0,1.3,0,1.9,0c0.5,0,1-0.2,1.4-0.5l0,0c0.4-0.8,0.5-1.7,0.5-2.5
	C19.5,32.6,19.4,31.7,19,30.9L19,30.9z"/>
<path class="st2" d="M33.2,0H10.8v5.3h5.6v5.6h-5.6v5.5H5.3v-5.5H0V33l0,0c0,7,3,11.4,10.7,11.4h33.7V10.7C44.4,3.1,40.1,0.1,33.2,0
	z M11.1,35.8c0.1,1.2-0.7,2.3-1.9,2.4c-0.1,0-0.3,0-0.4,0H5v-1.8h3.5c0.7,0,0.7-0.6,0.7-0.9v-7.1h1.9V35.8z M20.5,37.2L20.5,37.2
	c-0.7,0.8-1.7,1.2-2.8,1.2c-1.4,0-2,0-2,0c-1.1,0-2.1-0.4-2.8-1.2c-0.7-1.1-1-2.5-0.9-3.8c-0.1-1.3,0.2-2.6,0.9-3.8
	c0.7-0.8,1.7-1.2,2.8-1.2c0.7,0,1.3,0,2,0c1.1,0,2.1,0.4,2.8,1.2c0.7,1.2,1,2.5,0.9,3.8C21.4,34.7,21.1,36,20.5,37.2z M30.2,38.3h-2
	l-4.1-6.7v6.7h-1.9v-9.7h2l4.1,6.6v-6.6h1.9L30.2,38.3z M29.4,25.9c-0.4,0.2-0.8,0.3-1.3,0.3h-6v-1.8h5.6c0.7,0,1-0.8,1-1.1
	s-0.2-1.1-1-1.1h-3.4c-0.6,0-1.3-0.2-1.7-0.7c-0.5-0.6-0.8-1.4-0.8-2.2c0-1,0.4-1.9,1.2-2.5c0.4-0.2,0.8-0.3,1.3-0.3h5.9v1.8h-5.4
	c-0.7,0-1,0.8-1,1.1c0,0.6,0.4,1.1,1,1.1h3.4c0.6,0,1.3,0.2,1.7,0.7c0.5,0.6,0.8,1.4,0.8,2.2C30.7,24.4,30.2,25.3,29.4,25.9z
	 M35.2,16.5h4.3v1.8h-4.1c-1.2,0-2,0.8-2.2,2.2h6.3v1.7h-6.3c0.2,1.4,1,2.2,2.2,2.2h4.1v1.8h-4.3c-2.5,0-4-1.9-4-4.9
	S32.7,16.5,35.2,16.5z M39.5,34.3v4h-4.4c-2.5,0-4-1.9-4-4.9s1.6-4.9,4-4.9h4.3v1.8h-4.1c-1.4,0-2.3,1.2-2.3,3.1s0.8,3.1,2.3,3.1
	h2.3v-2.2h-2.2v-1.7h4L39.5,34.3z"/>
<rect x="0" y="0" class="st2" width="5.3" height="5.3"/>
</svg>
