<svg xmlns="http://www.w3.org/2000/svg" viewBox="0 0 44.39 44.39"><defs><style>.cls-1{fill:#fff;}.cls-2{fill:#004ea2;}</style></defs><g id="Layer_2" data-name="Layer 2"><g id="레이어_1" data-name="레이어 1"><path class="cls-1" d="M33.22,0H0V33H0C0,40,3,44.39,10.69,44.39h33.7V10.68C44.39,3.11,40.14.07,33.22,0Z"/><path class="cls-2" d="M19,30.86a2.1,2.1,0,0,0-1.38-.59,14.1,14.1,0,0,0-1.9,0,1.76,1.76,0,0,0-1.41.62h0a5.28,5.28,0,0,0-.44,2.53,5.17,5.17,0,0,0,.45,2.52,1.83,1.83,0,0,0,1.41.57,14.1,14.1,0,0,0,1.9,0A2.07,2.07,0,0,0,19,36l0,0a5.15,5.15,0,0,0,.45-2.52A5.23,5.23,0,0,0,19,30.88Z"/><path class="cls-2" d="M33.22,0H10.83V5.29h5.55v5.55H10.83v5.54H5.29V10.84H0V33H0C0,40,3,44.39,10.69,44.39h33.7V10.68C44.39,3.11,40.14.07,33.22,0ZM11.12,35.85a2.19,2.19,0,0,1-2.35,2.42H5V36.5H8.54c.7,0,.7-.57.7-.86V28.56h1.88Zm9.37,1.34h0a3.7,3.7,0,0,1-2.8,1.18c-1.39,0-2,0-2,0a3.65,3.65,0,0,1-2.8-1.18A6.76,6.76,0,0,1,12,33.42a6.83,6.83,0,0,1,.88-3.79,3.68,3.68,0,0,1,2.8-1.17,20,20,0,0,1,2,0,3.73,3.73,0,0,1,2.8,1.17,6.83,6.83,0,0,1,.88,3.79A6.76,6.76,0,0,1,20.49,37.19Zm9.75,1.09h-2L24.1,31.61v6.67H22.23V28.56h2l4.14,6.57V28.56h1.88ZM29.43,25.9a2.49,2.49,0,0,1-1.27.31h-6V24.44h5.56c.73,0,1-.78,1-1.13s-.24-1.11-1-1.11H24.35a2.31,2.31,0,0,1-1.71-.68,3.49,3.49,0,0,1-.82-2.17,3.11,3.11,0,0,1,1.25-2.54,2.45,2.45,0,0,1,1.28-.32h5.87v1.79H24.78c-.74,0-1,.76-1,1.1a1.11,1.11,0,0,0,1,1.13h3.38a2.27,2.27,0,0,1,1.71.67,3.56,3.56,0,0,1,.82,2.18A3.09,3.09,0,0,1,29.43,25.9Zm5.73-9.41h4.27v1.79h-4.1c-1.19,0-2,.81-2.2,2.21h6.3v1.7H33.12c.22,1.41,1,2.25,2.21,2.25h4.1v1.77H35.16c-2.46,0-4-1.92-4-4.86S32.7,16.49,35.16,16.49Zm4.38,17.77v4H35.17c-2.46,0-4.05-1.92-4.05-4.86s1.59-4.86,4.05-4.86h4.27v1.78H35.35c-1.43,0-2.28,1.16-2.28,3.08s.85,3.08,2.28,3.08h2.32V34.26H35.51V32.57h4Z"/><rect class="cls-2" width="5.29" height="5.29"/></g></g></svg>